<svg width="17" height="17" viewBox="0 0 17 17" fill="none" xmlns="http://www.w3.org/2000/svg">
<path d="M13.1647 15.2441L13.1546 15.2539L13.145 15.2642C13.0951 15.3179 13.0186 15.3759 12.9014 15.4307L12.9011 15.4308C12.7842 15.4855 12.6775 15.5179 12.5801 15.5334C12.5475 15.5355 12.5121 15.539 12.4846 15.5416L12.4802 15.5421C12.446 15.5454 12.3902 15.548 12.308 15.548C12.1331 15.548 11.8173 15.5175 11.3388 15.4466C10.9123 15.3834 10.3651 15.2232 9.68926 14.9518L9.68925 14.9518C9.03111 14.6874 8.27082 14.285 7.40599 13.7372L7.40598 13.7372C6.5623 13.2028 5.65185 12.4609 4.67482 11.5035L4.67485 11.5035L4.6702 11.4991C3.89395 10.7577 3.2579 10.0554 2.75807 9.39221C2.24923 8.71701 1.84601 8.10067 1.54446 7.54246L1.54445 7.54244C1.2377 6.97466 1.01376 6.47098 0.867158 6.02966C0.714029 5.5687 0.614873 5.18514 0.564043 4.8749C0.509685 4.54312 0.493817 4.31432 0.502005 4.17153C0.509907 4.03373 0.515887 3.92581 0.518431 3.86287C0.534115 3.77504 0.565993 3.67755 0.619835 3.5695C0.67499 3.45881 0.733539 3.38588 0.789051 3.33748L0.79894 3.32885L0.808363 3.31972L3.0626 1.13577C3.13601 1.06464 3.1949 1.04677 3.25706 1.04677C3.30416 1.04677 3.32999 1.05772 3.35298 1.07442C3.41114 1.11668 3.46232 1.16864 3.50698 1.23318L5.30937 4.54607L5.30921 4.54616L5.31618 4.55817C5.35181 4.61955 5.36491 4.68278 5.34473 4.77567C5.31956 4.89148 5.27038 4.97738 5.19728 5.0482L4.36677 5.85282C4.26221 5.95412 4.21033 6.07528 4.18256 6.15599C4.15688 6.23064 4.12994 6.33091 4.12994 6.44181V6.4905L4.13933 6.53827C4.19705 6.83187 4.32092 7.14168 4.49245 7.46269C4.64587 7.75925 4.87231 8.10313 5.16175 8.4901C5.46676 8.89789 5.88851 9.35344 6.41758 9.85516C6.93585 10.3682 7.40819 10.7787 7.83309 11.0786L7.83316 11.0787C8.23822 11.3646 8.5927 11.5864 8.8913 11.7341C9.16375 11.8689 9.41724 11.974 9.62795 12.0148C9.62807 12.0148 9.62818 12.0148 9.62829 12.0149L9.83976 12.0559L9.88692 12.065H9.93496C10.044 12.065 10.1476 12.0327 10.1987 12.0162L10.199 12.0161C10.2782 11.9905 10.3999 11.9422 10.5033 11.842L10.5033 11.842L10.5064 11.839L11.4588 10.9C11.5676 10.8102 11.6857 10.7678 11.8333 10.7678C11.976 10.7678 12.0306 10.7933 12.0396 10.7985L12.1561 10.8663H12.1749L15.3257 12.6694C15.4564 12.7487 15.4954 12.8167 15.5094 12.866C15.5159 12.9414 15.4964 13.0014 15.4182 13.0774C15.418 13.0776 15.4178 13.0778 15.4176 13.078L13.1647 15.2441Z" stroke="white"/>
</svg>
